<?xml version="1.0" encoding="UTF-8" standalone="no"?> <svg xmlns="http://www.w3.org/2000/svg" viewBox="0 0 512 512"><g id="flat"><circle cx="256" cy="248" r="152" style="fill:#97d9a9"/><path d="M246.3,443.75c-.14,0-.273,0-.414-.008a197.065,197.065,0,0,1-32.992-4.5,8,8,0,1,1,3.5-15.609,180.756,180.756,0,0,0,30.305,4.125,8,8,0,0,1-.4,15.992Zm31.915-1.047a8,8,0,0,1-.93-15.945,180.155,180.155,0,0,0,29.961-6.157,8,8,0,0,1,4.547,15.344,195.826,195.826,0,0,1-32.633,6.7A7.771,7.771,0,0,1,278.211,442.7Zm-94.048-12.914a7.95,7.95,0,0,1-3.054-.609,196.211,196.211,0,0,1-29.594-15.321,8,8,0,0,1,8.531-13.531,181.22,181.22,0,0,0,27.172,14.07,8,8,0,0,1-3.055,15.391ZM339.281,424.6a8,8,0,0,1-3.555-15.171,180.012,180.012,0,0,0,26.157-15.852,8,8,0,1,1,9.421,12.937,196.213,196.213,0,0,1-28.484,17.258A7.984,7.984,0,0,1,339.281,424.6ZM130.3,395.8a7.987,7.987,0,0,1-5.351-2.055,197.04,197.04,0,0,1-22.789-24.289,8,8,0,1,1,12.546-9.922,181.967,181.967,0,0,0,20.946,22.32A8,8,0,0,1,130.3,395.8Zm260.43-8.68A8,8,0,0,1,385,373.531a180.651,180.651,0,0,0,19.414-23.648,8,8,0,1,1,13.187,9.062A197.087,197.087,0,0,1,396.453,384.7,7.965,7.965,0,0,1,390.726,387.117ZM90.82,345.843a8,8,0,0,1-7.032-4.171,194.736,194.736,0,0,1-13.383-30.493,8,8,0,0,1,15.141-5.156,179.433,179.433,0,0,0,12.289,27.992,8,8,0,0,1-7.015,11.828Zm335.985-11.2a8,8,0,0,1-7.258-11.343,180.287,180.287,0,0,0,10.39-28.79,8,8,0,0,1,15.454,4.125,195.158,195.158,0,0,1-11.313,31.352A8,8,0,0,1,426.805,334.64ZM70.312,285.586a8,8,0,0,1-7.891-6.75,197.627,197.627,0,0,1,.383-64.024A8,8,0,0,1,78.57,217.5a182.123,182.123,0,0,0-.352,58.837,7.991,7.991,0,0,1-6.648,9.148A7.694,7.694,0,0,1,70.312,285.586Zm372.922-12.477c-.242,0-.484-.008-.734-.031a8.01,8.01,0,0,1-7.242-8.7C435.75,259.007,436,253.5,436,248c.008-4.711-.18-9.493-.547-14.219a8,8,0,1,1,15.953-1.25c.4,5.156.6,10.359.594,15.484,0,5.969-.274,11.969-.805,17.82A8,8,0,0,1,443.234,273.109Zm-5.015-63.485a8.01,8.01,0,0,1-7.75-6.039,177.275,177.275,0,0,0-10.024-28.875,8,8,0,0,1,14.61-6.531,194.188,194.188,0,0,1,10.929,31.485,8.01,8.01,0,0,1-5.8,9.718A8.129,8.129,0,0,1,438.219,209.624ZM78.726,193.242a8,8,0,0,1-7.539-10.672,195.787,195.787,0,0,1,13.765-30.352,8,8,0,0,1,13.954,7.828,179.855,179.855,0,0,0-12.641,27.867A7.989,7.989,0,0,1,78.726,193.242ZM412.312,151.5a8,8,0,0,1-6.656-3.547,180.423,180.423,0,0,0-19.117-23.89,8,8,0,1,1,11.594-11.016,195.674,195.674,0,0,1,20.82,26,8,8,0,0,1-6.641,12.453ZM109.874,137.7a8,8,0,0,1-6.2-13.039,197.637,197.637,0,0,1,23.078-24.008,8,8,0,1,1,10.563,12.015,182.784,182.784,0,0,0-21.219,22.071A7.984,7.984,0,0,1,109.874,137.7Zm258.563-32.368a7.962,7.962,0,0,1-4.789-1.593,179.065,179.065,0,0,0-25.969-16.18,8,8,0,1,1,7.266-14.25,195.42,195.42,0,0,1,28.3,17.617,8,8,0,0,1-4.805,14.406Zm-210.688-9.64a8,8,0,0,1-4.195-14.821,197.8,197.8,0,0,1,29.758-14.945,8,8,0,0,1,5.937,14.859,180.231,180.231,0,0,0-27.32,13.727A8,8,0,0,1,157.749,95.687Zm153.962-19.3a8.07,8.07,0,0,1-2.368-.359,179.934,179.934,0,0,0-29.882-6.516,8,8,0,1,1,2.062-15.859,194.9,194.9,0,0,1,32.555,7.093,8,8,0,0,1-2.367,15.641Zm-94.86-4.3A8,8,0,0,1,215.2,56.257a196.07,196.07,0,0,1,33.054-4.094,8.2,8.2,0,0,1,8.3,7.688,7.993,7.993,0,0,1-7.687,8.3,179.674,179.674,0,0,0-30.352,3.765A8.093,8.093,0,0,1,216.851,72.085Z" style="fill:#a8e6c7"/><path d="M290.52,344h0a18.125,18.125,0,0,1-17.985-15.877l-5.023-40.185A9.062,9.062,0,0,0,258.52,280h0a9.062,9.062,0,0,0-8.992,7.938L244.5,328.123A18.124,18.124,0,0,1,226.52,344h0a18.125,18.125,0,0,1-17.985-15.877l-.574-4.591a226.728,226.728,0,0,0-26.728-81.893h0a65.223,65.223,0,0,1-7.5-41.15h0A38.03,38.03,0,0,1,211.36,168h0a38.027,38.027,0,0,1,26.162,10.43h0a30.524,30.524,0,0,0,42,0h0A38.027,38.027,0,0,1,305.68,168h0a38.031,38.031,0,0,1,37.624,32.49h0a65.23,65.23,0,0,1-7.5,41.15h0a226.728,226.728,0,0,0-26.728,81.893l-.574,4.591A18.125,18.125,0,0,1,290.52,344Z" style="fill:#e4e4e2"/><path d="M335.3,200.489a37.925,37.925,0,0,0-33.528-32.117,37.9,37.9,0,0,0-22.258,10.057,30.383,30.383,0,0,1-25,8,30.383,30.383,0,0,1-25-8,37.9,37.9,0,0,0-22.257-10.057,37.925,37.925,0,0,0-33.529,32.117,65.23,65.23,0,0,0,7.5,41.15,226.728,226.728,0,0,1,26.728,81.893l.574,4.591a18.1,18.1,0,0,0,13.985,15.383A18.094,18.094,0,0,0,236.5,328.123l5.024-40.185A9.062,9.062,0,0,1,250.52,280a8.859,8.859,0,0,1,4,1.055,8.859,8.859,0,0,1,4-1.055,9.062,9.062,0,0,1,8.992,7.938l5.023,40.185a18.1,18.1,0,0,0,13.985,15.383,18.1,18.1,0,0,0,13.985-15.383l.574-4.591a226.728,226.728,0,0,1,26.728-81.893A65.223,65.223,0,0,0,335.3,200.489Z" style="fill:#efefef"/><path d="M258.523,223.976a43.821,43.821,0,0,1-19.578-4.594A8,8,0,0,1,246.1,205.07a27.921,27.921,0,0,0,24.852,0,8,8,0,1,1,7.14,14.312A43.788,43.788,0,0,1,258.523,223.976Z" style="fill:#e4e4e2"/><path d="M392,448h0a186.5,186.5,0,0,1-72-147.214V288l72-48,72,48v12.786A186.5,186.5,0,0,1,392,448Z" style="fill:#4298d1"/><path d="M392,408h0a106.582,106.582,0,0,0,40-83.225V304l-40-24-40,24v20.775A106.579,106.579,0,0,0,392,408Z" style="fill:#69b9e7"/></g></svg>